<?xml version="1.0" standalone="no"?>
<!DOCTYPE svg PUBLIC "-//W3C//DTD SVG 20010904//EN"
 "http://www.w3.org/TR/2001/REC-SVG-20010904/DTD/svg10.dtd">
<svg version="1.0" xmlns="http://www.w3.org/2000/svg"
 width="416.000000pt" height="416.000000pt" viewBox="0 0 416.000000 416.000000"
 preserveAspectRatio="xMidYMid meet">
<metadata>
Created by potrace 1.14, written by Peter Selinger 2001-2017
</metadata>
<g transform="translate(0.000000,416.000000) scale(0.100000,-0.100000)"
fill="#000000" stroke="none">
<path d="M1705 3711 c-71 -8 -96 -22 -124 -72 -38 -68 -19 -154 44 -195 23
-15 68 -17 408 -18 351 -1 385 1 415 17 36 20 72 83 72 127 0 38 -41 101 -80
124 -33 20 -51 21 -355 22 -176 0 -347 -2 -380 -5z"/>
<path d="M1133 3300 c-56 -34 -81 -113 -63 -196 13 -55 40 -90 87 -110 45 -20
1729 -19 1783 0 48 17 89 78 96 141 7 62 -24 129 -75 162 l-34 23 -881 0
c-856 0 -882 -1 -913 -20z"/>
<path d="M894 2881 c-103 -13 -172 -88 -181 -199 -7 -87 9 -143 54 -193 72
-80 -33 -74 1273 -74 1101 0 1168 1 1212 18 51 20 102 71 124 123 19 44 18
146 -2 192 -18 43 -55 85 -104 115 l-35 22 -1145 1 c-630 1 -1168 -2 -1196 -5z
m1510 -97 c3 -9 6 -69 6 -134 0 -94 -3 -122 -16 -134 -19 -20 -34 -20 -62 0
-21 14 -22 23 -22 134 0 65 3 125 6 134 4 11 19 16 44 16 25 0 40 -5 44 -16z
m-222 -181 c43 -43 78 -86 78 -96 0 -35 -20 -57 -50 -57 -23 0 -45 16 -104 74
-84 84 -96 108 -70 137 33 36 63 25 146 -58z m508 58 c18 -35 11 -50 -66 -131
-81 -85 -109 -97 -146 -63 -31 28 -21 50 58 133 66 69 81 80 110 80 23 0 37
-6 44 -19z"/>
<path d="M585 2296 c-56 -26 -119 -90 -142 -145 -21 -48 -21 -184 -1 -232 22
-50 73 -105 127 -137 l46 -27 405 -3 c222 -2 419 -1 437 3 42 8 98 59 80 73
-7 5 -50 26 -97 47 -135 59 -150 67 -161 87 -13 24 -3 55 22 69 11 5 147 54
302 109 155 54 334 116 397 139 l115 40 -740 0 -740 1 -50 -24z"/>
<path d="M2405 2308 c-2 -7 -13 -38 -24 -68 -93 -260 -161 -461 -161 -475 0
-15 53 -16 633 -13 706 3 652 -2 739 76 60 54 88 120 88 210 0 57 -5 83 -24
120 -29 57 -86 112 -144 141 -41 21 -50 21 -375 16 -487 -7 -595 -7 -664 0
-48 5 -64 4 -68 -7z m218 -147 c42 -43 77 -87 77 -97 0 -25 -29 -54 -55 -54
-23 0 -185 158 -185 180 0 23 32 50 60 50 20 0 45 -19 103 -79z"/>
<path d="M845 1635 c-50 -18 -111 -85 -126 -139 -15 -53 -5 -170 17 -204 34
-52 88 -91 139 -102 34 -7 431 -10 1205 -8 1274 3 1177 -2 1244 65 100 99 84
287 -32 368 l-44 30 -535 0 c-466 0 -537 -2 -544 -15 -4 -8 -26 -69 -49 -135
-70 -205 -80 -225 -108 -232 -14 -3 -32 -1 -41 4 -9 6 -40 64 -69 129 -29 65
-57 123 -63 129 -6 6 -60 -42 -147 -128 -98 -96 -145 -137 -162 -137 -32 0
-260 226 -260 258 0 14 20 45 51 78 l52 54 -244 0 c-183 -1 -254 -4 -284 -15z"/>
<path d="M1172 1080 c-80 -19 -125 -114 -102 -216 15 -66 50 -101 114 -113 64
-13 1615 -13 1706 -1 56 8 70 14 97 44 77 83 64 201 -30 270 -28 21 -33 21
-890 23 -474 0 -877 -2 -895 -7z"/>
<path d="M1641 651 c-111 -7 -114 -8 -142 -38 -57 -65 -45 -183 24 -230 l33
-23 488 0 c526 0 514 -1 565 54 18 19 25 40 28 78 5 66 -19 114 -71 141 -34
18 -65 20 -424 22 -213 2 -438 0 -501 -4z"/>
</g>
</svg>
