<svg xmlns="http://www.w3.org/2000/svg" xmlns:xlink="http://www.w3.org/1999/xlink" width="2000" height="1000" preserveAspectRatio="xMidYMid meet" version="1.0" viewBox="0 0 1500 750" zoomAndPan="magnify"><defs><clipPath id="Infinity"><path d="M 75 329.691406 L 327 329.691406 L 327 374.691406 L 75 374.691406 Z M 75 329.691406" clip-rule="nonzero"/></clipPath><clipPath id="c312b4732c"><path d="M 97 285.964844 L 304.75 285.964844 L 304.75 323.464844 L 97 323.464844 Z M 97 285.964844" clip-rule="nonzero"/></clipPath><clipPath id="6791ea3f48"><path d="M 97 381.179688 L 304.75 381.179688 L 304.75 418.679688 L 97 418.679688 Z M 97 381.179688" clip-rule="nonzero"/></clipPath><clipPath id="369e03e95c"><path d="M 124.203125 252.191406 L 277.203125 252.191406 L 277.203125 279.941406 L 124.203125 279.941406 Z M 124.203125 252.191406" clip-rule="nonzero"/></clipPath><clipPath id="04d307fee5"><path d="M 124.203125 424.746094 L 277.203125 424.746094 L 277.203125 452.496094 L 124.203125 452.496094 Z M 124.203125 424.746094" clip-rule="nonzero"/></clipPath><clipPath id="034110a66a"><path d="M 155 458.523438 L 225.472656 458.523438 L 225.472656 481.773438 L 155 481.773438 Z M 155 458.523438" clip-rule="nonzero"/></clipPath><clipPath id="0f53e95017"><path d="M 176.394531 458.523438 L 246.730469 458.523438 L 246.730469 481.773438 L 176.394531 481.773438 Z M 176.394531 458.523438" clip-rule="nonzero"/></clipPath><clipPath id="2cc409c9db"><path d="M 211.5625 222.425781 L 237.0625 222.425781 L 237.0625 245.675781 L 211.5625 245.675781 Z M 211.5625 222.425781" clip-rule="nonzero"/></clipPath><clipPath id="56626114d5"><path d="M 163 222.425781 L 213.21875 222.425781 L 213.21875 245.675781 L 163 245.675781 Z M 163 222.425781" clip-rule="nonzero"/></clipPath><clipPath id="28fd5734e6"><path d="M 220 292.300781 L 229 292.300781 L 229 317 L 220 317 Z M 220 292.300781" clip-rule="nonzero"/></clipPath><clipPath id="3e8f20b59a"><path d="M 236 324 L 260.808594 324 L 260.808594 333 L 236 333 Z M 236 324" clip-rule="nonzero"/></clipPath><clipPath id="4ab840ce8b"><path d="M 555.792969 241.449219 L 612.800781 241.449219 L 612.800781 298.457031 L 555.792969 298.457031 Z M 555.792969 241.449219" clip-rule="nonzero"/></clipPath><clipPath id="5b5bd86d7b"><path d="M 584.296875 241.449219 C 568.554688 241.449219 555.792969 254.210938 555.792969 269.953125 C 555.792969 285.695312 568.554688 298.457031 584.296875 298.457031 C 600.039062 298.457031 612.800781 285.695312 612.800781 269.953125 C 612.800781 254.210938 600.039062 241.449219 584.296875 241.449219" clip-rule="nonzero"/></clipPath><clipPath id="48f81f05c3"><path d="M 981.070312 244.039062 L 1035.488281 244.039062 L 1035.488281 298.457031 L 981.070312 298.457031 Z M 981.070312 244.039062" clip-rule="nonzero"/></clipPath><clipPath id="373c725685"><path d="M 1008.277344 244.039062 C 993.25 244.039062 981.070312 256.21875 981.070312 271.246094 C 981.070312 286.273438 993.25 298.457031 1008.277344 298.457031 C 1023.304688 298.457031 1035.488281 286.273438 1035.488281 271.246094 C 1035.488281 256.21875 1023.304688 244.039062 1008.277344 244.039062" clip-rule="nonzero"/></clipPath></defs><g clip-path="url(#4e97304332)"><path fill="#ffb906" fill-opacity="1" fill-rule="nonzero" d="M 304.132812 374.691406 L 97.867188 374.691406 C 85.328125 374.691406 75.1875 364.628906 75.1875 352.191406 C 75.1875 339.753906 85.328125 329.691406 97.867188 329.691406 L 304.132812 329.691406 C 316.671875 329.691406 326.8125 339.753906 326.8125 352.191406 C 326.8125 364.628906 316.636719 374.691406 304.132812 374.691406 Z M 304.132812 374.691406"/></g><g clip-path="url(#c312b4732c)"><path fill="#ffb906" fill-opacity="1" fill-rule="nonzero" d="M 285.890625 323.464844 L 115.859375 323.464844 C 105.527344 323.464844 97.164062 315.082031 97.164062 304.714844 C 97.164062 294.351562 105.527344 285.964844 115.859375 285.964844 L 285.890625 285.964844 C 296.226562 285.964844 304.585938 294.351562 304.585938 304.714844 C 304.585938 315.082031 296.199219 323.464844 285.890625 323.464844 Z M 285.890625 323.464844"/></g><g clip-path="url(#6791ea3f48)"><path fill="#ffb906" fill-opacity="1" fill-rule="nonzero" d="M 285.890625 418.679688 L 115.859375 418.679688 C 105.527344 418.679688 97.164062 410.296875 97.164062 399.929688 C 97.164062 389.566406 105.527344 381.179688 115.859375 381.179688 L 285.890625 381.179688 C 296.226562 381.179688 304.585938 389.566406 304.585938 399.929688 C 304.585938 410.296875 296.199219 418.679688 285.890625 418.679688 Z M 285.890625 418.679688"/></g><g clip-path="url(#369e03e95c)"><path fill="#ffb906" fill-opacity="1" fill-rule="nonzero" d="M 263.304688 279.941406 L 138.101562 279.941406 C 130.492188 279.941406 124.335938 273.738281 124.335938 266.066406 C 124.335938 258.398438 130.492188 252.191406 138.101562 252.191406 L 263.304688 252.191406 C 270.917969 252.191406 277.074219 258.398438 277.074219 266.066406 C 277.074219 273.738281 270.894531 279.941406 263.304688 279.941406 Z M 263.304688 279.941406"/></g><g clip-path="url(#04d307fee5)"><path fill="#ffb906" fill-opacity="1" fill-rule="nonzero" d="M 263.304688 452.496094 L 138.101562 452.496094 C 130.492188 452.496094 124.335938 446.292969 124.335938 438.621094 C 124.335938 430.953125 130.492188 424.746094 138.101562 424.746094 L 263.304688 424.746094 C 270.917969 424.746094 277.074219 430.953125 277.074219 438.621094 C 277.074219 446.292969 270.894531 452.496094 263.304688 452.496094 Z M 263.304688 452.496094"/></g><g clip-path="url(#034110a66a)"><path fill="#ffb906" fill-opacity="1" fill-rule="nonzero" d="M 274.300781 481.773438 L 166.898438 481.773438 C 160.371094 481.773438 155.089844 476.574219 155.089844 470.148438 C 155.089844 463.722656 160.371094 458.523438 166.898438 458.523438 L 274.300781 458.523438 C 280.828125 458.523438 286.109375 463.722656 286.109375 470.148438 C 286.109375 476.574219 280.808594 481.773438 274.300781 481.773438 Z M 274.300781 481.773438"/></g><g clip-path="url(#0f53e95017)"><path fill="#ffb906" fill-opacity="1" fill-rule="nonzero" d="M 127.40625 481.773438 L 234.808594 481.773438 C 241.335938 481.773438 246.617188 476.574219 246.617188 470.148438 C 246.617188 463.722656 241.335938 458.523438 234.808594 458.523438 L 127.40625 458.523438 C 120.878906 458.523438 115.597656 463.722656 115.597656 470.148438 C 115.597656 476.574219 120.898438 481.773438 127.40625 481.773438 Z M 127.40625 481.773438"/></g><g clip-path="url(#2cc409c9db)"><path fill="#ffb906" fill-opacity="1" fill-rule="nonzero" d="M 225.199219 245.675781 L 117.796875 245.675781 C 111.269531 245.675781 105.988281 240.476562 105.988281 234.050781 C 105.988281 227.625 111.269531 222.425781 117.796875 222.425781 L 225.199219 222.425781 C 231.726562 222.425781 237.007812 227.625 237.007812 234.050781 C 237.007812 240.476562 231.707031 245.675781 225.199219 245.675781 Z M 225.199219 245.675781"/></g><g clip-path="url(#56626114d5)"><path fill="#ffb906" fill-opacity="1" fill-rule="nonzero" d="M 282.292969 245.675781 L 174.894531 245.675781 C 168.363281 245.675781 163.082031 240.476562 163.082031 234.050781 C 163.082031 227.625 168.363281 222.425781 174.894531 222.425781 L 282.292969 222.425781 C 288.820312 222.425781 294.101562 227.625 294.101562 234.050781 C 294.101562 240.476562 288.804688 245.675781 282.292969 245.675781 Z M 282.292969 245.675781"/></g><g clip-path="url(#28fd5734e6)"><path fill="#fff" fill-opacity="1" fill-rule="nonzero" d="M 224.929688 292.300781 C 224.667969 292.300781 224.40625 292.328125 224.152344 292.378906 C 223.894531 292.429688 223.644531 292.503906 223.402344 292.605469 C 223.160156 292.707031 222.933594 292.828125 222.714844 292.972656 C 222.496094 293.121094 222.296875 293.285156 222.109375 293.46875 C 221.925781 293.65625 221.757812 293.855469 221.613281 294.074219 C 221.46875 294.292969 221.347656 294.523438 221.246094 294.761719 C 221.144531 295.003906 221.070312 295.253906 221.019531 295.511719 C 220.96875 295.769531 220.941406 296.027344 220.941406 296.289062 L 220.941406 312.234375 C 220.941406 312.496094 220.96875 312.757812 221.019531 313.015625 C 221.070312 313.269531 221.144531 313.519531 221.246094 313.761719 C 221.347656 314.003906 221.46875 314.234375 221.613281 314.449219 C 221.757812 314.667969 221.925781 314.871094 222.109375 315.054688 C 222.296875 315.238281 222.496094 315.40625 222.714844 315.550781 C 222.933594 315.695312 223.160156 315.820312 223.402344 315.917969 C 223.644531 316.019531 223.894531 316.09375 224.152344 316.144531 C 224.40625 316.195312 224.667969 316.222656 224.929688 316.222656 C 225.191406 316.222656 225.449219 316.195312 225.707031 316.144531 C 225.964844 316.09375 226.210938 316.019531 226.453125 315.917969 C 226.695312 315.820312 226.925781 315.695312 227.144531 315.550781 C 227.363281 315.40625 227.5625 315.238281 227.746094 315.054688 C 227.933594 314.871094 228.097656 314.667969 228.242188 314.449219 C 228.390625 314.234375 228.511719 314.003906 228.613281 313.761719 C 228.710938 313.519531 228.789062 313.269531 228.839844 313.015625 C 228.890625 312.757812 228.914062 312.496094 228.914062 312.234375 L 228.914062 296.289062 C 228.914062 296.027344 228.890625 295.769531 228.839844 295.511719 C 228.789062 295.253906 228.710938 295.003906 228.613281 294.761719 C 228.511719 294.523438 228.390625 294.292969 228.242188 294.074219 C 228.097656 293.855469 227.933594 293.65625 227.746094 293.46875 C 227.5625 293.285156 227.363281 293.121094 227.144531 292.972656 C 226.925781 292.828125 226.695312 292.707031 226.453125 292.605469 C 226.210938 292.503906 225.964844 292.429688 225.707031 292.378906 C 225.449219 292.328125 225.191406 292.300781 224.929688 292.300781 Z M 224.929688 292.300781"/></g><g clip-path="url(#3e8f20b59a)"><path fill="#fff" fill-opacity="1" fill-rule="nonzero" d="M 256.824219 324.195312 L 240.875 324.195312 C 240.613281 324.195312 240.355469 324.222656 240.097656 324.273438 C 239.839844 324.324219 239.59375 324.398438 239.351562 324.5 C 239.109375 324.601562 238.878906 324.722656 238.660156 324.867188 C 238.441406 325.011719 238.242188 325.179688 238.058594 325.363281 C 237.871094 325.550781 237.707031 325.75 237.5625 325.96875 C 237.414062 326.1875 237.292969 326.414062 237.191406 326.65625 C 237.09375 326.898438 237.015625 327.148438 236.964844 327.40625 C 236.914062 327.660156 236.890625 327.921875 236.890625 328.183594 C 236.890625 328.445312 236.914062 328.703125 236.964844 328.960938 C 237.015625 329.21875 237.09375 329.464844 237.191406 329.707031 C 237.292969 329.949219 237.414062 330.179688 237.5625 330.398438 C 237.707031 330.617188 237.871094 330.816406 238.058594 331 C 238.242188 331.1875 238.441406 331.351562 238.660156 331.496094 C 238.878906 331.644531 239.109375 331.765625 239.351562 331.867188 C 239.59375 331.964844 239.839844 332.042969 240.097656 332.09375 C 240.355469 332.144531 240.613281 332.167969 240.875 332.167969 L 256.824219 332.167969 C 257.085938 332.167969 257.34375 332.144531 257.601562 332.09375 C 257.855469 332.042969 258.105469 331.964844 258.347656 331.867188 C 258.589844 331.765625 258.820312 331.644531 259.039062 331.496094 C 259.253906 331.351562 259.457031 331.1875 259.640625 331 C 259.828125 330.816406 259.992188 330.617188 260.136719 330.398438 C 260.28125 330.179688 260.40625 329.949219 260.503906 329.707031 C 260.605469 329.464844 260.679688 329.21875 260.734375 328.960938 C 260.785156 328.703125 260.808594 328.445312 260.808594 328.183594 C 260.808594 327.921875 260.785156 327.660156 260.734375 327.40625 C 260.679688 327.148438 260.605469 326.898438 260.503906 326.65625 C 260.40625 326.414062 260.28125 326.1875 260.136719 325.96875 C 259.992188 325.75 259.828125 325.550781 259.640625 325.363281 C 259.457031 325.179688 259.253906 325.011719 259.039062 324.867188 C 258.820312 324.722656 258.589844 324.601562 258.347656 324.5 C 258.105469 324.398438 257.855469 324.324219 257.601562 324.273438 C 257.34375 324.222656 257.085938 324.195312 256.824219 324.195312 Z M 256.824219 324.195312"/></g><path fill="#fff" fill-opacity="1" fill-rule="nonzero" d="M 239.707031 337.324219 C 239.332031 336.960938 238.902344 336.683594 238.414062 336.488281 C 237.929688 336.296875 237.425781 336.199219 236.902344 336.207031 C 236.378906 336.210938 235.878906 336.3125 235.394531 336.515625 C 234.914062 336.71875 234.488281 337.003906 234.117188 337.371094 C 233.75 337.742188 233.464844 338.167969 233.261719 338.648438 C 233.058594 339.132812 232.957031 339.632812 232.953125 340.15625 C 232.945312 340.679688 233.042969 341.183594 233.234375 341.667969 C 233.429688 342.15625 233.707031 342.585938 234.070312 342.960938 L 244.039062 352.929688 C 244.414062 353.292969 244.84375 353.570312 245.328125 353.761719 C 245.816406 353.957031 246.320312 354.050781 246.839844 354.046875 C 247.363281 354.042969 247.867188 353.9375 248.347656 353.738281 C 248.832031 353.535156 249.257812 353.25 249.625 352.878906 C 249.996094 352.511719 250.28125 352.085938 250.484375 351.601562 C 250.683594 351.121094 250.789062 350.617188 250.792969 350.09375 C 250.796875 349.574219 250.703125 349.070312 250.507812 348.582031 C 250.316406 348.097656 250.039062 347.667969 249.675781 347.292969 Z M 239.707031 337.324219"/><path fill="#fff" fill-opacity="1" fill-rule="nonzero" d="M 210.148438 319.042969 C 210.527344 319.40625 210.957031 319.683594 211.441406 319.875 C 211.925781 320.070312 212.433594 320.164062 212.953125 320.160156 C 213.476562 320.15625 213.980469 320.050781 214.460938 319.851562 C 214.945312 319.648438 215.371094 319.363281 215.738281 318.992188 C 216.109375 318.625 216.394531 318.199219 216.597656 317.714844 C 216.796875 317.234375 216.902344 316.730469 216.90625 316.207031 C 216.910156 315.6875 216.816406 315.179688 216.621094 314.695312 C 216.429688 314.210938 216.152344 313.78125 215.789062 313.402344 L 205.820312 303.4375 C 205.445312 303.074219 205.015625 302.796875 204.527344 302.601562 C 204.042969 302.410156 203.539062 302.3125 203.015625 302.316406 C 202.492188 302.324219 201.992188 302.425781 201.507812 302.628906 C 201.027344 302.832031 200.601562 303.117188 200.230469 303.484375 C 199.863281 303.855469 199.578125 304.28125 199.375 304.761719 C 199.171875 305.246094 199.070312 305.746094 199.0625 306.269531 C 199.058594 306.792969 199.15625 307.296875 199.347656 307.78125 C 199.542969 308.269531 199.820312 308.699219 200.183594 309.074219 Z M 210.148438 319.042969"/><path fill="#fff" fill-opacity="1" fill-rule="nonzero" d="M 236.890625 320.210938 C 237.988281 320.210938 238.929688 319.820312 239.707031 319.042969 L 249.675781 309.074219 C 249.863281 308.890625 250.035156 308.691406 250.1875 308.472656 C 250.335938 308.253906 250.464844 308.023438 250.566406 307.78125 C 250.671875 307.539062 250.75 307.285156 250.804688 307.027344 C 250.859375 306.769531 250.890625 306.507812 250.890625 306.242188 C 250.894531 305.976562 250.871094 305.714844 250.820312 305.453125 C 250.769531 305.195312 250.695312 304.941406 250.59375 304.695312 C 250.496094 304.453125 250.371094 304.21875 250.222656 304 C 250.078125 303.777344 249.910156 303.574219 249.722656 303.386719 C 249.535156 303.199219 249.332031 303.035156 249.113281 302.886719 C 248.890625 302.742188 248.660156 302.617188 248.414062 302.515625 C 248.167969 302.417969 247.917969 302.339844 247.65625 302.292969 C 247.398438 302.242188 247.136719 302.21875 246.871094 302.21875 C 246.605469 302.222656 246.34375 302.25 246.085938 302.304688 C 245.824219 302.359375 245.574219 302.4375 245.332031 302.542969 C 245.089844 302.648438 244.859375 302.777344 244.640625 302.925781 C 244.421875 303.078125 244.222656 303.246094 244.039062 303.4375 L 234.070312 313.402344 C 233.792969 313.683594 233.558594 313.996094 233.375 314.34375 C 233.1875 314.691406 233.054688 315.058594 232.980469 315.445312 C 232.902344 315.832031 232.882812 316.222656 232.921875 316.613281 C 232.960938 317.003906 233.054688 317.382812 233.207031 317.75 C 233.359375 318.113281 233.558594 318.445312 233.808594 318.75 C 234.058594 319.054688 234.347656 319.316406 234.675781 319.539062 C 235.003906 319.757812 235.355469 319.921875 235.730469 320.039062 C 236.109375 320.152344 236.496094 320.210938 236.890625 320.210938 Z M 236.890625 320.210938"/><path fill="#fff" fill-opacity="1" fill-rule="nonzero" d="M 223.613281 324.417969 L 143.878906 352.328125 C 143.5 352.457031 143.152344 352.640625 142.832031 352.878906 C 142.507812 353.117188 142.230469 353.394531 141.992188 353.714844 C 141.753906 354.039062 141.566406 354.386719 141.433594 354.761719 C 141.300781 355.140625 141.226562 355.527344 141.210938 355.925781 C 141.195312 356.328125 141.238281 356.71875 141.339844 357.105469 C 141.441406 357.492188 141.597656 357.855469 141.808594 358.195312 C 142.019531 358.535156 142.273438 358.835938 142.578125 359.097656 C 142.878906 359.359375 143.210938 359.570312 143.574219 359.734375 L 163.109375 368.414062 L 142.378906 389.144531 C 142.195312 389.328125 142.03125 389.53125 141.882812 389.746094 C 141.738281 389.964844 141.617188 390.195312 141.515625 390.4375 C 141.417969 390.679688 141.339844 390.929688 141.289062 391.183594 C 141.238281 391.441406 141.210938 391.699219 141.210938 391.960938 C 141.210938 392.222656 141.238281 392.484375 141.289062 392.738281 C 141.339844 392.996094 141.417969 393.246094 141.515625 393.488281 C 141.617188 393.730469 141.738281 393.960938 141.882812 394.175781 C 142.03125 394.394531 142.195312 394.597656 142.378906 394.78125 L 158.328125 410.726562 C 158.707031 411.085938 159.140625 411.363281 159.628906 411.558594 C 160.117188 411.753906 160.621094 411.847656 161.144531 411.847656 C 161.667969 411.847656 162.175781 411.753906 162.664062 411.558594 C 163.148438 411.363281 163.582031 411.085938 163.964844 410.726562 L 184.695312 389.996094 L 193.378906 409.53125 C 193.535156 409.882812 193.738281 410.207031 193.988281 410.5 C 194.238281 410.796875 194.523438 411.046875 194.847656 411.257812 C 195.171875 411.46875 195.519531 411.628906 195.886719 411.738281 C 196.257812 411.847656 196.636719 411.902344 197.023438 411.902344 L 197.183594 411.902344 C 197.582031 411.886719 197.96875 411.8125 198.34375 411.679688 C 198.71875 411.542969 199.066406 411.359375 199.386719 411.121094 C 199.707031 410.886719 199.984375 410.605469 200.222656 410.285156 C 200.457031 409.964844 200.640625 409.617188 200.773438 409.242188 L 228.679688 329.507812 C 228.933594 328.785156 228.976562 328.046875 228.804688 327.300781 C 228.636719 326.554688 228.28125 325.910156 227.738281 325.367188 C 227.199219 324.828125 226.554688 324.46875 225.804688 324.300781 C 225.058594 324.128906 224.324219 324.171875 223.601562 324.421875 Z M 223.613281 324.417969"/><g fill="#fff" fill-opacity="1"><g><g><path d="M 13.847656 -23.4375 C 13.847656 -16.113281 16.644531 -9.585938 21.441406 -4.925781 C 26.101562 -0.132812 32.625 2.664062 39.949219 2.664062 C 47.007812 2.664062 53.664062 -0.132812 58.460938 -4.925781 C 63.121094 -9.585938 66.050781 -16.113281 66.050781 -23.4375 L 66.050781 -64.453125 C 66.050781 -68.714844 67.78125 -72.839844 70.578125 -76.039062 C 73.375 -79.234375 77.234375 -81.230469 81.496094 -81.230469 C 85.757812 -81.230469 89.488281 -79.367188 92.148438 -76.4375 C 94.8125 -73.507812 96.277344 -69.511719 96.277344 -65.25 L 96.277344 -27.164062 C 96.277344 -19.308594 98.542969 -11.851562 102.9375 -6.390625 C 107.199219 -0.933594 113.722656 2.664062 122.246094 2.664062 C 129.570312 2.664062 135.960938 -0.398438 140.753906 -5.195312 C 145.417969 -9.988281 148.347656 -16.511719 148.347656 -23.4375 L 148.347656 -65.25 C 148.347656 -83.496094 142.886719 -100.40625 132.898438 -112.523438 C 122.777344 -124.640625 108.128906 -132.234375 89.621094 -132.234375 C 85.492188 -132.234375 80.832031 -131.300781 76.570312 -129.4375 C 72.308594 -127.570312 68.3125 -125.042969 66.050781 -121.980469 L 66.050781 -147.8125 C 66.050781 -154.871094 63.121094 -161.527344 58.460938 -166.191406 C 53.664062 -170.851562 47.007812 -173.78125 39.949219 -173.78125 C 32.625 -173.78125 26.101562 -170.851562 21.441406 -166.191406 C 16.644531 -161.527344 13.847656 -154.871094 13.847656 -147.8125 Z M 13.847656 -23.4375" transform="translate(387.571743, 436.423836)"/></g></g></g><g fill="#fff" fill-opacity="1"><g><g><path d="M 13.183594 -168.320312 C 13.183594 -160.996094 15.980469 -154.605469 20.773438 -150.078125 C 25.433594 -145.550781 31.960938 -142.753906 39.285156 -142.753906 C 46.339844 -142.753906 53 -145.550781 57.792969 -150.078125 C 62.453125 -154.605469 65.382812 -160.996094 65.382812 -168.320312 C 65.382812 -175.378906 62.453125 -181.769531 57.792969 -186.429688 C 53 -191.09375 46.339844 -193.753906 39.285156 -193.753906 C 31.960938 -193.753906 25.433594 -191.09375 20.773438 -186.429688 C 15.980469 -181.769531 13.183594 -175.378906 13.183594 -168.320312 Z M 13.847656 -23.4375 C 13.847656 -16.113281 16.644531 -9.585938 21.304688 -4.925781 C 25.96875 -0.132812 32.492188 2.664062 39.816406 2.664062 C 46.875 2.664062 53.53125 -0.132812 58.328125 -4.925781 C 62.988281 -9.585938 65.917969 -16.113281 65.917969 -23.4375 L 65.917969 -105.734375 C 65.917969 -112.789062 62.988281 -119.449219 58.328125 -124.109375 C 53.53125 -128.769531 46.875 -131.699219 39.816406 -131.699219 C 32.492188 -131.699219 25.96875 -128.769531 21.304688 -124.109375 C 16.644531 -119.449219 13.847656 -112.789062 13.847656 -105.734375 Z M 13.847656 -23.4375" transform="translate(541.630542, 436.423836)"/></g></g></g><g fill="#fff" fill-opacity="1"><g><g><path d="M 138.757812 -94.546875 C 141.953125 -101.074219 142.21875 -108.261719 140.089844 -114.65625 C 137.824219 -120.914062 133.164062 -126.375 126.640625 -129.171875 C 120.113281 -132.367188 112.65625 -132.765625 106.265625 -130.636719 C 99.742188 -128.503906 94.28125 -123.84375 91.617188 -117.320312 L 72.574219 -70.3125 L 53.53125 -117.851562 C 50.203125 -124.375 44.742188 -128.902344 38.484375 -130.902344 C 32.09375 -132.898438 24.902344 -132.5 18.375 -129.171875 C 11.984375 -125.972656 7.589844 -120.515625 5.59375 -114.121094 C 3.460938 -107.730469 3.863281 -100.539062 7.191406 -94.015625 L 49.003906 -11.71875 C 53.664062 -3.195312 61.523438 2.128906 70.042969 2.664062 C 81.097656 3.730469 91.484375 -1.332031 96.945312 -11.984375 Z M 138.757812 -94.546875" transform="translate(613.666167, 436.423836)"/></g></g></g><g fill="#fff" fill-opacity="1"><g><g><path d="M 75.371094 2.664062 C 85.625 2.664062 97.34375 1.199219 106.53125 -2.929688 C 115.585938 -7.058594 122.113281 -13.582031 121.980469 -23.835938 C 121.847656 -30.09375 119.316406 -34.890625 115.320312 -38.21875 C 111.324219 -41.546875 106 -43.410156 100.671875 -44.078125 C 95.347656 -44.742188 90.019531 -43.945312 86.15625 -42.214844 C 82.5625 -40.617188 79.765625 -39.285156 75.636719 -39.285156 C 72.042969 -39.285156 68.847656 -41.015625 66.316406 -43.410156 C 63.652344 -45.808594 61.921875 -48.472656 61.523438 -51.003906 L 120.25 -51.003906 C 126.773438 -51.003906 132.367188 -51.800781 136.226562 -54.332031 C 140.089844 -56.863281 142.488281 -61.121094 142.488281 -68.046875 C 142.488281 -86.558594 134.894531 -102.402344 122.777344 -113.589844 C 110.527344 -124.777344 93.882812 -131.433594 75.371094 -131.433594 C 56.863281 -131.433594 40.214844 -123.84375 28.097656 -111.726562 C 15.847656 -99.609375 8.257812 -82.695312 8.257812 -64.453125 C 8.257812 -45.941406 15.847656 -29.164062 28.097656 -17.046875 C 40.214844 -4.792969 56.863281 2.664062 75.371094 2.664062 Z M 75.371094 -90.152344 C 78.035156 -90.152344 81.496094 -89.085938 84.425781 -87.488281 C 87.355469 -85.757812 89.621094 -83.226562 90.019531 -80.164062 L 60.722656 -80.164062 C 61.390625 -83.226562 63.519531 -85.757812 66.316406 -87.488281 C 68.980469 -89.085938 72.308594 -90.152344 75.371094 -90.152344 Z M 75.371094 -90.152344" transform="translate(751.34695, 436.423836)"/></g></g></g><g fill="#fff" fill-opacity="1"><g><g><path d="M 13.847656 -23.4375 C 13.847656 -16.113281 16.644531 -9.585938 21.441406 -4.925781 C 26.101562 -0.132812 32.625 2.664062 39.949219 2.664062 C 47.007812 2.664062 53.664062 -0.132812 58.460938 -4.925781 C 63.121094 -9.585938 66.050781 -16.113281 66.050781 -23.4375 L 66.050781 -147.8125 C 66.050781 -154.871094 63.121094 -161.527344 58.460938 -166.191406 C 53.664062 -170.851562 47.007812 -173.78125 39.949219 -173.78125 C 32.625 -173.78125 26.101562 -170.851562 21.441406 -166.191406 C 16.644531 -161.527344 13.847656 -154.871094 13.847656 -147.8125 Z M 13.847656 -23.4375" transform="translate(894.353941, 436.423836)"/></g></g></g><g fill="#fff" fill-opacity="1"><g><g><path d="M 13.183594 -168.320312 C 13.183594 -160.996094 15.980469 -154.605469 20.773438 -150.078125 C 25.433594 -145.550781 31.960938 -142.753906 39.285156 -142.753906 C 46.339844 -142.753906 53 -145.550781 57.792969 -150.078125 C 62.453125 -154.605469 65.382812 -160.996094 65.382812 -168.320312 C 65.382812 -175.378906 62.453125 -181.769531 57.792969 -186.429688 C 53 -191.09375 46.339844 -193.753906 39.285156 -193.753906 C 31.960938 -193.753906 25.433594 -191.09375 20.773438 -186.429688 C 15.980469 -181.769531 13.183594 -175.378906 13.183594 -168.320312 Z M 13.847656 -23.4375 C 13.847656 -16.113281 16.644531 -9.585938 21.304688 -4.925781 C 25.96875 -0.132812 32.492188 2.664062 39.816406 2.664062 C 46.875 2.664062 53.53125 -0.132812 58.328125 -4.925781 C 62.988281 -9.585938 65.917969 -16.113281 65.917969 -23.4375 L 65.917969 -105.734375 C 65.917969 -112.789062 62.988281 -119.449219 58.328125 -124.109375 C 53.53125 -128.769531 46.875 -131.699219 39.816406 -131.699219 C 32.492188 -131.699219 25.96875 -128.769531 21.304688 -124.109375 C 16.644531 -119.449219 13.847656 -112.789062 13.847656 -105.734375 Z M 13.847656 -23.4375" transform="translate(966.522724, 436.423836)"/></g></g></g><g fill="#fff" fill-opacity="1"><g><g><path d="M 13.847656 -23.4375 C 13.847656 -16.113281 16.644531 -9.585938 21.441406 -4.925781 C 26.101562 -0.132812 32.625 2.664062 39.949219 2.664062 C 47.007812 2.664062 53.664062 -0.132812 58.460938 -4.925781 C 63.121094 -9.585938 66.050781 -16.113281 66.050781 -23.4375 L 66.050781 -65.117188 C 66.183594 -69.246094 67.914062 -73.109375 70.710938 -75.902344 C 73.507812 -78.566406 77.234375 -80.433594 81.496094 -80.433594 C 85.757812 -80.433594 89.488281 -78.566406 92.148438 -75.636719 C 94.8125 -72.707031 96.277344 -68.714844 96.277344 -64.453125 L 96.277344 -23.171875 C 96.277344 -16.113281 99.207031 -9.722656 104 -5.058594 C 108.796875 -0.265625 115.1875 2.664062 122.511719 2.664062 C 129.570312 2.664062 136.09375 -0.265625 140.753906 -5.058594 C 145.417969 -9.722656 148.347656 -16.113281 148.347656 -23.171875 L 148.347656 -64.453125 C 148.347656 -82.695312 142.886719 -99.609375 132.898438 -111.726562 C 122.777344 -123.84375 108.128906 -131.433594 89.621094 -131.433594 C 85.492188 -131.433594 79.5 -131.433594 72.175781 -129.835938 C 64.71875 -128.238281 56.0625 -124.910156 47.007812 -118.382812 C 42.613281 -127.039062 37.285156 -131.433594 28.363281 -131.433594 C 18.644531 -131.433594 13.847656 -126.640625 13.847656 -117.050781 Z M 13.847656 -23.4375" transform="translate(1038.558335, 436.423836)"/></g></g></g><g fill="#fff" fill-opacity="1"><g><g><path d="M 13.847656 -23.4375 C 13.847656 -16.113281 16.644531 -9.585938 21.441406 -4.925781 C 26.101562 -0.132812 32.625 2.664062 39.949219 2.664062 C 47.007812 2.664062 53.664062 -0.132812 58.460938 -4.925781 C 63.121094 -9.585938 66.050781 -16.113281 66.050781 -23.4375 L 66.050781 -35.953125 C 66.316406 -36.085938 66.582031 -36.355469 66.980469 -36.621094 C 67.382812 -36.753906 67.914062 -37.152344 68.847656 -37.6875 C 69.644531 -38.21875 70.84375 -39.015625 72.308594 -40.082031 L 78.300781 -44.476562 L 102.269531 -7.988281 C 107.597656 -1.199219 115.054688 2.398438 122.511719 2.398438 C 129.4375 2.398438 135.5625 -0.53125 139.957031 -4.925781 C 144.351562 -9.320312 147.015625 -15.3125 147.546875 -21.574219 C 147.945312 -27.832031 146.214844 -34.089844 141.421875 -39.417969 L 118.382812 -73.507812 L 134.761719 -85.492188 C 141.15625 -90.152344 145.28125 -97.609375 145.28125 -105.734375 C 145.28125 -109.328125 144.484375 -112.789062 143.019531 -115.855469 C 140.222656 -122.113281 134.894531 -126.640625 128.902344 -129.171875 C 124.777344 -130.769531 121.046875 -131.566406 116.917969 -131.035156 C 112.125 -130.367188 107.863281 -128.636719 104 -125.972656 L 66.050781 -98.277344 L 66.050781 -147.8125 C 66.050781 -154.871094 63.121094 -161.527344 58.460938 -166.191406 C 53.664062 -170.851562 47.007812 -173.78125 39.949219 -173.78125 C 32.625 -173.78125 26.101562 -170.851562 21.441406 -166.191406 C 16.644531 -161.527344 13.847656 -154.871094 13.847656 -147.8125 Z M 13.847656 -23.4375" transform="translate(1193.016607, 436.423836)"/></g></g></g><g clip-path="url(#4ab840ce8b)"><g clip-path="url(#5b5bd86d7b)"><path fill="#ffb906" fill-opacity="1" fill-rule="nonzero" d="M 555.792969 241.449219 L 612.800781 241.449219 L 612.800781 298.457031 L 555.792969 298.457031 Z M 555.792969 241.449219"/></g></g><g clip-path="url(#48f81f05c3)"><g clip-path="url(#373c725685)"><path fill="#ffb906" fill-opacity="1" fill-rule="nonzero" d="M 981.070312 244.039062 L 1035.488281 244.039062 L 1035.488281 298.457031 L 981.070312 298.457031 Z M 981.070312 244.039062"/></g></g></svg>